<mxfile host="app.diagrams.net" modified="2024-06-20T01:40:48.575Z" agent="Mozilla/5.0 (Windows NT 10.0; Win64; x64) AppleWebKit/537.36 (KHTML, like Gecko) Chrome/126.0.0.0 Safari/537.36" version="24.5.5" etag="Bb4h7A72Ftk1DFFQAkBs" type="github">
  <diagram name="第 1 页" id="kS-1hj-qkySGCemXJleW">
    <mxGraphModel>
      <root>
        <mxCell id="0" />
        <mxCell id="1" parent="0" />
      </root>
    </mxGraphModel>
  </diagram>
</mxfile>
